<mxfile host="app.diagrams.net" modified="2024-03-20T06:53:13.886Z" agent="Mozilla/5.0 (Macintosh; Intel Mac OS X 10_15_7) AppleWebKit/537.36 (KHTML, like Gecko) Chrome/122.0.0.0 Safari/537.36" etag="m0aXMGdi0Zu2uqEjNb98" version="24.0.7" type="github">
  <diagram name="第 1 页" id="JICsA3OnDITFlrl4TZmo">
    <mxGraphModel dx="1247" dy="1146" grid="1" gridSize="10" guides="1" tooltips="1" connect="1" arrows="1" fold="1" page="1" pageScale="1" pageWidth="827" pageHeight="1169" math="0" shadow="0">
      <root>
        <mxCell id="0" />
        <mxCell id="1" parent="0" />
        <mxCell id="tHmg9VfuHh7ciGgWM9wT-1" style="edgeStyle=orthogonalEdgeStyle;rounded=0;orthogonalLoop=1;jettySize=auto;html=1;exitX=1;exitY=0.5;exitDx=0;exitDy=0;fontSize=13;" edge="1" parent="1" source="tHmg9VfuHh7ciGgWM9wT-2" target="tHmg9VfuHh7ciGgWM9wT-4">
          <mxGeometry relative="1" as="geometry" />
        </mxCell>
        <mxCell id="tHmg9VfuHh7ciGgWM9wT-2" value="1" style="whiteSpace=wrap;html=1;aspect=fixed;fontSize=13;" vertex="1" parent="1">
          <mxGeometry x="1154" y="962" width="50" height="50" as="geometry" />
        </mxCell>
        <mxCell id="tHmg9VfuHh7ciGgWM9wT-3" style="edgeStyle=orthogonalEdgeStyle;rounded=0;orthogonalLoop=1;jettySize=auto;html=1;exitX=1;exitY=0.5;exitDx=0;exitDy=0;entryX=0;entryY=0.5;entryDx=0;entryDy=0;fontSize=13;" edge="1" parent="1" source="tHmg9VfuHh7ciGgWM9wT-4" target="tHmg9VfuHh7ciGgWM9wT-6">
          <mxGeometry relative="1" as="geometry" />
        </mxCell>
        <mxCell id="tHmg9VfuHh7ciGgWM9wT-4" value="2" style="whiteSpace=wrap;html=1;aspect=fixed;fontSize=13;" vertex="1" parent="1">
          <mxGeometry x="1250" y="962" width="50" height="50" as="geometry" />
        </mxCell>
        <mxCell id="tHmg9VfuHh7ciGgWM9wT-5" style="edgeStyle=orthogonalEdgeStyle;rounded=0;orthogonalLoop=1;jettySize=auto;html=1;exitX=1;exitY=0.5;exitDx=0;exitDy=0;entryX=0;entryY=0.5;entryDx=0;entryDy=0;fontSize=13;" edge="1" parent="1" source="tHmg9VfuHh7ciGgWM9wT-6" target="tHmg9VfuHh7ciGgWM9wT-8">
          <mxGeometry relative="1" as="geometry" />
        </mxCell>
        <mxCell id="tHmg9VfuHh7ciGgWM9wT-6" value="3" style="whiteSpace=wrap;html=1;aspect=fixed;fontSize=13;" vertex="1" parent="1">
          <mxGeometry x="1345" y="962" width="50" height="50" as="geometry" />
        </mxCell>
        <mxCell id="tHmg9VfuHh7ciGgWM9wT-7" style="edgeStyle=orthogonalEdgeStyle;rounded=0;orthogonalLoop=1;jettySize=auto;html=1;exitX=1;exitY=0.5;exitDx=0;exitDy=0;entryX=0;entryY=0.5;entryDx=0;entryDy=0;fontSize=13;" edge="1" parent="1" source="tHmg9VfuHh7ciGgWM9wT-8" target="tHmg9VfuHh7ciGgWM9wT-9">
          <mxGeometry relative="1" as="geometry" />
        </mxCell>
        <mxCell id="tHmg9VfuHh7ciGgWM9wT-8" value="4" style="whiteSpace=wrap;html=1;aspect=fixed;fontSize=13;" vertex="1" parent="1">
          <mxGeometry x="1440" y="962" width="50" height="50" as="geometry" />
        </mxCell>
        <mxCell id="tHmg9VfuHh7ciGgWM9wT-9" value="5" style="whiteSpace=wrap;html=1;aspect=fixed;fontSize=13;" vertex="1" parent="1">
          <mxGeometry x="1532.5" y="962" width="50" height="50" as="geometry" />
        </mxCell>
        <mxCell id="tHmg9VfuHh7ciGgWM9wT-10" style="edgeStyle=orthogonalEdgeStyle;rounded=0;orthogonalLoop=1;jettySize=auto;html=1;exitX=1;exitY=0.5;exitDx=0;exitDy=0;fontSize=13;" edge="1" parent="1" source="tHmg9VfuHh7ciGgWM9wT-11" target="tHmg9VfuHh7ciGgWM9wT-2">
          <mxGeometry relative="1" as="geometry" />
        </mxCell>
        <mxCell id="tHmg9VfuHh7ciGgWM9wT-11" value="LRU链表" style="rounded=0;whiteSpace=wrap;html=1;fontSize=13;" vertex="1" parent="1">
          <mxGeometry x="950" y="967" width="100" height="40" as="geometry" />
        </mxCell>
        <mxCell id="tHmg9VfuHh7ciGgWM9wT-12" value="" style="edgeStyle=orthogonalEdgeStyle;rounded=0;orthogonalLoop=1;jettySize=auto;html=1;fontSize=13;" edge="1" parent="1" source="tHmg9VfuHh7ciGgWM9wT-13" target="tHmg9VfuHh7ciGgWM9wT-2">
          <mxGeometry relative="1" as="geometry" />
        </mxCell>
        <mxCell id="tHmg9VfuHh7ciGgWM9wT-13" value="head" style="text;html=1;align=center;verticalAlign=middle;resizable=0;points=[];autosize=1;strokeColor=none;fillColor=none;fontSize=13;" vertex="1" parent="1">
          <mxGeometry x="1155" y="900" width="50" height="30" as="geometry" />
        </mxCell>
        <mxCell id="tHmg9VfuHh7ciGgWM9wT-14" value="" style="edgeStyle=orthogonalEdgeStyle;rounded=0;orthogonalLoop=1;jettySize=auto;html=1;fontSize=13;" edge="1" parent="1" source="tHmg9VfuHh7ciGgWM9wT-15" target="tHmg9VfuHh7ciGgWM9wT-9">
          <mxGeometry relative="1" as="geometry" />
        </mxCell>
        <mxCell id="tHmg9VfuHh7ciGgWM9wT-15" value="tail" style="text;html=1;align=center;verticalAlign=middle;resizable=0;points=[];autosize=1;strokeColor=none;fillColor=none;fontSize=13;" vertex="1" parent="1">
          <mxGeometry x="1537.5" y="900" width="40" height="30" as="geometry" />
        </mxCell>
      </root>
    </mxGraphModel>
  </diagram>
</mxfile>
